HIERARCHY
ROOT Hips
{
    OFFSET 0.000000 0.000000 0.000000
    CHANNELS 6 Xposition Yposition Zposition Zrotation Xrotation Yrotation
        JOINT Chest
        {
            OFFSET -0.000000 34.099812 -0.000000
            CHANNELS 3 Zrotation Xrotation Yrotation
            JOINT Neck
            {
                OFFSET -0.000000 25.785578 0.000000
                CHANNELS 3 Zrotation Xrotation Yrotation
                JOINT Head
                {
                    OFFSET -0.000000 11.061110 0.000000
                    CHANNELS 3 Zrotation Xrotation Yrotation
                    End Site
                    {
                        OFFSET -0.000000 17.094444 0.000000
                    }
                }
            }
            JOINT LeftCollar
            {
                OFFSET -0.000000 25.785578 0.000000
                CHANNELS 3 Zrotation Xrotation Yrotation
                JOINT LeftShoulder
                {
                    OFFSET 19.000000 -0.000000 0.000000
                    CHANNELS 3 Zrotation Xrotation Yrotation
                    JOINT LeftElbow
                    {
                        OFFSET 29.227484 0.000000 0.000000
                        CHANNELS 3 Zrotation Xrotation Yrotation
                        JOINT LeftWrist
                        {
                            OFFSET 22.377386 0.000000 0.000000
                            CHANNELS 3 Zrotation Xrotation Yrotation
                            End Site
                            {
                                OFFSET 0.000000 -15.083334 0.000000
                            }
                        }
                    }
                }
            }
            JOINT RightCollar
            {
                OFFSET -0.000000 25.785578 0.000000
                CHANNELS 3 Zrotation Xrotation Yrotation
                JOINT RightShoulder
                {
                    OFFSET -19.000000 0.000000 0.000000
                    CHANNELS 3 Zrotation Xrotation Yrotation
                    JOINT RightElbow
                    {
                        OFFSET -29.227484 0.000000 0.000000
                        CHANNELS 3 Zrotation Xrotation Yrotation
                        JOINT RightWrist
                        {
                            OFFSET -22.377386 0.000000 0.000000
                            CHANNELS 3 Zrotation Xrotation Yrotation
                            End Site
                            {
                                OFFSET -0.000000 -15.083334 0.000000
                            }
                        }
                    }
                }
            }
        }
    JOINT LeftHip
    {
        OFFSET 12.066666 0.000000 0.000000
        CHANNELS 3 Zrotation Xrotation Yrotation
        JOINT LeftKnee
        {
            OFFSET -0.000000 -38.619030 0.000000
            CHANNELS 3 Zrotation Xrotation Yrotation
            JOINT LeftAnkle
            {
                OFFSET -0.000000 -42.566540 0.000000
                CHANNELS 3 Zrotation Xrotation Yrotation
                End Site
                {
                    OFFSET -0.000000 -5.027778 17.094444
                }
            }
        }
    }
    JOINT RightHip
    {
        OFFSET -12.066666 0.000000 0.000000
        CHANNELS 3 Zrotation Xrotation Yrotation
        JOINT RightKnee
        {
            OFFSET -0.000000 -38.619030 0.000000
            CHANNELS 3 Zrotation Xrotation Yrotation
            JOINT RightAnkle
            {
                OFFSET -0.000000 -42.566540 0.000000
                CHANNELS 3 Zrotation Xrotation Yrotation
                End Site
                {
                    OFFSET -0.000000 -5.027778 17.094444
                }
            }
        }
    }
}
MOTION
Frames:    12
Frame Time:    0.010000
-87.563988    90.042686    -53.148712    -4.316146    -0.463995    -10.576035    8.568964    15.942214    -3.366461    -12.633587    2.623106    2.132759    9.907889    -12.027837    2.910045    -8.810010    -0.653906    8.915394    -68.709389    16.223494    -3.141841    -26.487360    30.877272    -99.078735    167.220108    9.927627    2.111576    29.690565    2.005569    7.661416    21.114059    52.215244    25.960035    0.340744    0.147688    46.867188    -154.319031    -29.157259    -6.654990    9.383680    1.503741    1.554374    -10.380490    20.667454    9.181778    -2.662423    -15.428291    31.964533    -1.761606    -23.121687    -0.380283    0.540414    42.178581    10.542075    12.372547    -16.201380    1.179948    
-87.848267    90.402809    -53.136021    -4.394678    -0.072020    -10.037447    8.435614    15.682368    -3.511149    -13.156489    2.862880    1.433455    11.946404    -12.261075    2.346209    -8.613627    -0.678664    9.554649    -68.798668    16.571758    -3.471356    -26.274185    30.370710    -99.048500    166.911758    9.562519    1.872992    29.832499    1.984378    7.371649    19.954922    53.345524    27.489553    -0.303447    -0.290423    46.279884    -152.605164    -28.740799    -5.738131    9.508599    1.363896    1.503210    -9.739789    19.851547    9.720943    -3.370644    -14.479463    30.954378    -1.072403    -22.487251    0.837917    0.300789    39.764606    11.207508    10.419228    -16.213121    1.480510    
-88.064102    90.717758    -53.029335    -4.246497    -0.203116    -9.419302    8.365272    15.993700    -4.092513    -13.146479    1.242785    1.804839    10.787524    -10.639316    2.686414    -8.688764    -0.731364    9.461484    -68.682579    15.993681    -3.658095    -26.417419    30.781851    -98.790581    167.249542    10.156792    1.763706    29.710857    1.988455    7.506432    20.542505    52.700569    27.182545    0.107342    0.064210    46.396618    -154.731476    -28.348177    -7.284714    9.072796    1.786374    0.891536    -8.908102    19.044579    9.151437    -3.630570    -13.815614    31.206163    -0.731598    -21.133389    2.064713    0.077313    36.776329    15.268253    11.193373    -16.864119    -0.614973    
-88.269020    90.922852    -53.006744    -4.271226    0.010584    -8.970819    8.374392    15.972511    -4.391373    -13.376654    0.557416    1.725002    11.064169    -10.069729    2.631806    -8.665873    -0.762242    9.741924    -68.655975    15.882349    -3.924796    -26.583569    30.836708    -98.599876    167.237366    9.991020    1.506462    29.652292    1.980747    7.497103    20.268660    52.821266    27.737501    0.036142    0.018295    46.243725    -154.848587    -28.103870    -7.519061    9.073846    1.741976    0.623076    -8.449757    18.516207    9.021129    -3.978438    -13.348568    31.107252    -0.268842    -20.529909    3.067939    -0.160755    34.960709    16.574354    10.868197    -17.088089    -1.139526    
-88.507774    91.131317    -52.984535    -4.307890    0.283713    -8.450470    8.402061    15.882446    -4.724717    -13.555199    -0.058853    1.552468    11.303371    -9.621208    2.504855    -8.646095    -0.724063    9.826859    -68.578293    15.713800    -4.217597    -26.775482    30.961727    -98.364449    167.336288    9.948836    1.274520    29.604012    1.946243    7.360091    20.025389    52.886063    28.290009    -0.040595    -0.033060    46.081951    -155.023041    -27.820591    -7.773370    9.104196    1.646549    0.291380    -7.970889    17.938393    8.940460    -4.376375    -12.856790    30.971081    0.266641    -19.886728    4.284307    -0.434407    32.979870    17.824675    10.467378    -17.223778    -1.702209    
-88.776634    91.327461    -52.961437    -4.356712    0.613452    -7.864820    8.425901    15.731749    -5.077312    -13.736967    -0.686431    1.361332    11.560814    -9.182926    2.363978    -8.620955    -0.739770    9.901723    -68.505829    15.578291    -4.474796    -26.877512    30.959354    -98.291435    167.220566    9.770774    0.891726    29.549118    1.939224    7.220590    19.838072    52.914993    28.805342    -0.070664    -0.023925    45.925083    -155.194931    -27.551044    -8.005974    9.169404    1.493006    -0.098240    -7.493257    17.338028    8.930602    -4.816397    -12.373416    30.783051    0.858748    -19.228527    5.706963    -0.727952    30.914879    18.850771    9.993168    -17.194641    -2.242652    
-89.071556    91.494591    -52.935009    -4.418247    0.992760    -7.222744    8.437228    15.500605    -5.430456    -13.914542    -1.271517    1.156530    11.834442    -8.769610    2.213217    -8.605681    -0.737096    9.964082    -68.383461    15.431942    -4.730627    -26.979807    31.030005    -98.199303    167.250198    9.794275    0.567369    29.507774    1.894160    7.094971    19.672806    52.983852    29.292049    -0.150500    -0.066011    45.783726    -155.342041    -27.257841    -8.230885    9.274765    1.278264    -0.527860    -7.036913    16.751659    8.958710    -5.281433    -11.950655    30.567608    1.487329    -18.581017    7.307128    -1.020248    28.859825    19.487722    9.454579    -16.947718    -2.691433    
-89.388374    91.616318    -52.901852    -4.493870    1.406412    -6.537067    8.425079    15.172571    -5.762048    -14.069427    -1.738875    0.948712    12.112494    -8.426724    2.045511    -8.591972    -0.763091    9.991479    -68.233536    15.306077    -4.918381    -27.040951    31.058750    -98.201569    167.197510    9.781497    0.163467    29.490566    1.857510    6.990697    19.645821    53.050560    29.609087    -0.186006    -0.062355    45.677925    -155.481262    -26.997242    -8.407654    9.425197    1.008785    -0.965181    -6.619647    16.221043    8.945470    -5.742675    -11.653085    30.379990    2.130422    -17.966202    9.033024    -1.283930    26.914722    19.620413    8.852377    -16.474417    -3.003429    
-89.723289    91.677917    -52.858822    -4.585223    1.831011    -5.825366    8.380421    14.745471    -6.047659    -14.187937    -2.027746    0.739926    12.390079    -8.187160    1.868685    -8.595184    -0.735249    9.976624    -68.005211    15.150562    -5.086742    -27.137619    31.191969    -98.163071    167.293945    9.923669    -0.186414    29.513464    1.825785    6.920379    19.758173    53.131138    29.733061    -0.186237    -0.102613    45.623222    -155.629150    -26.788683    -8.521476    9.625516    0.701017    -1.367473    -6.257672    15.786322    8.796967    -6.163221    -11.544839    30.281349    2.767454    -17.401844    10.809732    -1.488739    25.175882    19.226053    8.168911    -15.813839    -3.183582    
-90.073296    91.666962    -52.803856    -4.694255    2.235930    -5.108026    8.300141    14.238180    -6.265036    -14.258142    -2.101262    0.533282    12.662308    -8.077707    1.681482    -8.594974    -0.775381    9.918237    -67.749733    15.038901    -5.129142    -27.155209    31.226145    -98.295235    167.185028    9.927572    -0.665664    29.581743    1.834048    6.887533    20.046570    53.193871    29.613602    -0.208489    -0.076361    45.637543    -155.681686    -26.591084    -8.586008    9.880603    0.380209    -1.689630    -5.964110    15.480451    8.433958    -6.502880    -11.676958    30.318111    3.382493    -16.899467    12.540195    -1.606433    23.723001    18.378809    7.375688    -15.036923    -3.281278    
-90.437035    91.573692    -52.735985    -4.820462    2.584345    -4.403602    8.184664    13.690989    -6.402428    -14.273954    -1.956168    0.329635    12.928376    -8.108375    1.479236    -8.618011    -0.739231    9.828155    -67.375908    14.895501    -5.181706    -27.268940    31.448303    -98.309631    167.365646    10.217471    -0.983937    29.707722    1.821080    6.889195    20.459064    53.294556    29.291897    -0.294225    -0.124125    45.732174    -155.738770    -26.380293    -8.608953    10.192569    0.077689    -1.892123    -5.745238    15.328788    7.795136    -6.723282    -12.081372    30.521624    3.965908    -16.463104    14.106155    -1.621591    22.613808    17.228018    6.454428    -14.227715    -3.363400    
-90.814674    91.392235    -52.655613    -4.956636    2.837560    -3.726146    8.030372    13.159878    -6.462067    -14.232990    -1.617117    0.126591    13.191243    -8.279055    1.255817    -8.644791    -0.743846    9.730416    -66.936928    14.825162    -5.192202    -27.350382    31.583923    -98.468643    167.346085    10.320228    -1.430257    29.886400    1.870883    6.917611    21.045706    53.336086    28.716211    -0.305519    -0.135751    45.925156    -155.794617    -26.249557    -8.532226    10.555845    -0.174900    -1.953693    -5.599144    15.350139    6.839211    -6.791913    -12.767717    30.913137    4.513841    -16.094091    15.378433    -1.540179    21.891253    15.974927    5.413372    -13.471793    -3.501670    
